Disc 1 Of 9

Five Go Mad In Dorset
War
The Beat Generation
Bad News Tour
Summer School
Five Go Mad On Mescalin

Note. Video/Audio Bitrate And Resolution Height varies in all 6 clips

Format                                   : MPEG-4
Format profile                           : Base Media / Version 2
Codec ID                                 : mp42
File size                                : 1.35 GiB
Duration                                 : 2h 59mn 46s
Overall bit rate mode                    : Variable
Overall bit rate                         : 1 073 Kbps

Video
ID                                       : 1
Format                                   : AVC
Format/Info                              : Advanced Video Codec
Format profile                           : Main@L3.0
Format settings, CABAC                   : Yes
Format settings, ReFrames                : 1 frame
Codec ID                                 : avc1
Codec ID/Info                            : Advanced Video Coding
Duration                                 : 2h 59mn 46s
Bit rate mode                            : Variable
Bit rate                                 : 999 Kbps
Width                                    : 720 pixels
Height                                   : 556 pixels
Display aspect ratio                     : 1.295
Frame rate mode                          : Constant
Frame rate                               : 25.000 fps
Color space                              : YUV
Chroma subsampling                       : 4:2:0
Bit depth                                : 8 bits
Scan type                                : Progressive
Bits/(Pixel*Frame)                       : 0.100
Stream size                              : 1.25 GiB (93%)
Writing library                          : x264 core

Audio
ID                                       : 2
Format                                   : AAC
Format/Info                              : Advanced Audio Codec
Format profile                           : LC
Codec ID                                 : 40
Duration                                 : 2h 59mn 46s
Bit rate mode                            : Variable
Bit rate                                 : 70.1 Kbps
Maximum bit rate                         : 84.6 Kbps
Channel(s)                               : 2 channels
Channel positions                        : Front: L R
Sampling rate                            : 48.0 KHz
Compression mode                         : Lossy
Stream size                              : 94.5 MiB (7%)
Language                                 : English
Subtitles                                : None

IMDB.  http://www.imdb.com/title/tt0083402/

Screens.  http://bayimg.com/kAnImAAeB

          http://bayimg.com/KanIOAaEB

          http://bayimg.com/KAniPAAEb

          http://bayimg.com/LAniaaAEb

          http://bayimg.com/lANiCaAeB

          http://bayimg.com/LaNiDAAEB

Enjoy.